<mxfile host="app.diagrams.net" agent="Mozilla/5.0 (Windows NT 10.0; Win64; x64) AppleWebKit/537.36 (KHTML, like Gecko) Chrome/136.0.0.0 Safari/537.36" version="26.0.16">
  <diagram name="Page-1" id="h_N7MyGI9QOMcDXJMXP-">
    <mxGraphModel dx="2353" dy="511" grid="1" gridSize="10" guides="1" tooltips="1" connect="1" arrows="1" fold="1" page="1" pageScale="1" pageWidth="827" pageHeight="1169" math="0" shadow="0">
      <root>
        <mxCell id="0" />
        <mxCell id="1" parent="0" />
        <mxCell id="YQMP1E4HPhKx9zHPdBce-58" value="" style="edgeStyle=orthogonalEdgeStyle;rounded=0;orthogonalLoop=1;jettySize=auto;html=1;" edge="1" parent="1">
          <mxGeometry relative="1" as="geometry">
            <mxPoint x="770.0588235294122" y="250" as="sourcePoint" />
            <mxPoint x="727" y="143" as="targetPoint" />
          </mxGeometry>
        </mxCell>
        <mxCell id="YQMP1E4HPhKx9zHPdBce-7" value="Config Service" style="rounded=0;whiteSpace=wrap;html=1;" vertex="1" parent="1">
          <mxGeometry x="690" y="440" width="120" height="60" as="geometry" />
        </mxCell>
        <mxCell id="YQMP1E4HPhKx9zHPdBce-9" value="Eureka Server" style="rounded=0;whiteSpace=wrap;html=1;" vertex="1" parent="1">
          <mxGeometry x="190" y="440" width="120" height="60" as="geometry" />
        </mxCell>
        <mxCell id="YQMP1E4HPhKx9zHPdBce-15" style="edgeStyle=orthogonalEdgeStyle;rounded=0;orthogonalLoop=1;jettySize=auto;html=1;exitX=0.5;exitY=0.5;exitDx=0;exitDy=0;exitPerimeter=0;entryX=0;entryY=0.5;entryDx=0;entryDy=0;" edge="1" parent="1" source="YQMP1E4HPhKx9zHPdBce-12" target="YQMP1E4HPhKx9zHPdBce-14">
          <mxGeometry relative="1" as="geometry">
            <mxPoint x="-199" y="209" as="targetPoint" />
          </mxGeometry>
        </mxCell>
        <mxCell id="YQMP1E4HPhKx9zHPdBce-12" value="Client" style="shape=umlActor;verticalLabelPosition=bottom;verticalAlign=top;html=1;outlineConnect=0;" vertex="1" parent="1">
          <mxGeometry x="-289" y="179" width="50" height="60" as="geometry" />
        </mxCell>
        <mxCell id="YQMP1E4HPhKx9zHPdBce-18" value="" style="edgeStyle=orthogonalEdgeStyle;rounded=0;orthogonalLoop=1;jettySize=auto;html=1;" edge="1" parent="1" source="YQMP1E4HPhKx9zHPdBce-14" target="YQMP1E4HPhKx9zHPdBce-17">
          <mxGeometry relative="1" as="geometry" />
        </mxCell>
        <mxCell id="YQMP1E4HPhKx9zHPdBce-14" value="Fontend" style="rounded=0;whiteSpace=wrap;html=1;" vertex="1" parent="1">
          <mxGeometry x="-219" y="189" width="89" height="50" as="geometry" />
        </mxCell>
        <mxCell id="YQMP1E4HPhKx9zHPdBce-17" value="API Gateway" style="rounded=0;whiteSpace=wrap;html=1;" vertex="1" parent="1">
          <mxGeometry x="-91" y="189" width="91" height="50" as="geometry" />
        </mxCell>
        <mxCell id="YQMP1E4HPhKx9zHPdBce-19" value="" style="endArrow=none;dashed=1;html=1;dashPattern=1 3;strokeWidth=2;rounded=0;exitX=1;exitY=0.5;exitDx=0;exitDy=0;entryX=0;entryY=0.5;entryDx=0;entryDy=0;" edge="1" parent="1" source="YQMP1E4HPhKx9zHPdBce-17" target="YQMP1E4HPhKx9zHPdBce-3">
          <mxGeometry width="50" height="50" relative="1" as="geometry">
            <mxPoint x="190" y="250" as="sourcePoint" />
            <mxPoint x="240" y="200" as="targetPoint" />
          </mxGeometry>
        </mxCell>
        <mxCell id="YQMP1E4HPhKx9zHPdBce-20" value="\custoner" style="edgeLabel;html=1;align=center;verticalAlign=middle;resizable=0;points=[];" vertex="1" connectable="0" parent="YQMP1E4HPhKx9zHPdBce-19">
          <mxGeometry x="0.029" y="4" relative="1" as="geometry">
            <mxPoint x="-1" y="3" as="offset" />
          </mxGeometry>
        </mxCell>
        <mxCell id="YQMP1E4HPhKx9zHPdBce-21" value="" style="endArrow=none;dashed=1;html=1;dashPattern=1 3;strokeWidth=2;rounded=0;exitX=1;exitY=0.5;exitDx=0;exitDy=0;entryX=0;entryY=0.5;entryDx=0;entryDy=0;" edge="1" parent="1" source="YQMP1E4HPhKx9zHPdBce-17" target="YQMP1E4HPhKx9zHPdBce-1">
          <mxGeometry width="50" height="50" relative="1" as="geometry">
            <mxPoint x="190" y="250" as="sourcePoint" />
            <mxPoint x="240" y="200" as="targetPoint" />
          </mxGeometry>
        </mxCell>
        <mxCell id="YQMP1E4HPhKx9zHPdBce-23" value="\product" style="edgeLabel;html=1;align=center;verticalAlign=middle;resizable=0;points=[];" vertex="1" connectable="0" parent="YQMP1E4HPhKx9zHPdBce-21">
          <mxGeometry x="0.2528" y="2" relative="1" as="geometry">
            <mxPoint as="offset" />
          </mxGeometry>
        </mxCell>
        <mxCell id="YQMP1E4HPhKx9zHPdBce-22" value="" style="endArrow=none;dashed=1;html=1;dashPattern=1 3;strokeWidth=2;rounded=0;exitX=1;exitY=0.5;exitDx=0;exitDy=0;entryX=1.033;entryY=0.367;entryDx=0;entryDy=0;entryPerimeter=0;" edge="1" parent="1" source="YQMP1E4HPhKx9zHPdBce-17" target="YQMP1E4HPhKx9zHPdBce-5">
          <mxGeometry width="50" height="50" relative="1" as="geometry">
            <mxPoint x="190" y="250" as="sourcePoint" />
            <mxPoint x="240" y="200" as="targetPoint" />
          </mxGeometry>
        </mxCell>
        <mxCell id="YQMP1E4HPhKx9zHPdBce-24" value="\order" style="edgeLabel;html=1;align=center;verticalAlign=middle;resizable=0;points=[];" vertex="1" connectable="0" parent="YQMP1E4HPhKx9zHPdBce-22">
          <mxGeometry x="0.0426" y="-1" relative="1" as="geometry">
            <mxPoint as="offset" />
          </mxGeometry>
        </mxCell>
        <mxCell id="YQMP1E4HPhKx9zHPdBce-53" value="" style="shape=callout;whiteSpace=wrap;html=1;perimeter=calloutPerimeter;" vertex="1" parent="1">
          <mxGeometry x="690" y="90" width="70" height="70" as="geometry" />
        </mxCell>
        <mxCell id="YQMP1E4HPhKx9zHPdBce-54" value="SMS" style="text;html=1;align=center;verticalAlign=middle;whiteSpace=wrap;rounded=0;" vertex="1" parent="1">
          <mxGeometry x="697" y="93" width="60" height="30" as="geometry" />
        </mxCell>
        <mxCell id="YQMP1E4HPhKx9zHPdBce-60" value="" style="swimlane;startSize=0;" vertex="1" parent="1">
          <mxGeometry x="10" y="10" width="910" height="420" as="geometry" />
        </mxCell>
        <mxCell id="YQMP1E4HPhKx9zHPdBce-3" value="CustomerService" style="rounded=0;whiteSpace=wrap;html=1;" vertex="1" parent="YQMP1E4HPhKx9zHPdBce-60">
          <mxGeometry x="190" y="90" width="120" height="60" as="geometry" />
        </mxCell>
        <mxCell id="YQMP1E4HPhKx9zHPdBce-61" style="edgeStyle=orthogonalEdgeStyle;rounded=0;orthogonalLoop=1;jettySize=auto;html=1;exitX=0.5;exitY=1;exitDx=0;exitDy=0;" edge="1" parent="YQMP1E4HPhKx9zHPdBce-60" source="YQMP1E4HPhKx9zHPdBce-40">
          <mxGeometry relative="1" as="geometry">
            <mxPoint x="160.294117647059" y="210" as="targetPoint" />
          </mxGeometry>
        </mxCell>
        <mxCell id="YQMP1E4HPhKx9zHPdBce-40" value="PostGres" style="shape=datastore;whiteSpace=wrap;html=1;" vertex="1" parent="YQMP1E4HPhKx9zHPdBce-60">
          <mxGeometry x="130" y="160" width="60" height="40" as="geometry" />
        </mxCell>
        <mxCell id="YQMP1E4HPhKx9zHPdBce-69" value="" style="edgeStyle=orthogonalEdgeStyle;rounded=0;orthogonalLoop=1;jettySize=auto;html=1;" edge="1" parent="YQMP1E4HPhKx9zHPdBce-60" source="YQMP1E4HPhKx9zHPdBce-5" target="YQMP1E4HPhKx9zHPdBce-39">
          <mxGeometry relative="1" as="geometry" />
        </mxCell>
        <mxCell id="YQMP1E4HPhKx9zHPdBce-70" value="Docker" style="edgeLabel;html=1;align=center;verticalAlign=middle;resizable=0;points=[];" vertex="1" connectable="0" parent="YQMP1E4HPhKx9zHPdBce-69">
          <mxGeometry x="-0.0601" y="-1" relative="1" as="geometry">
            <mxPoint as="offset" />
          </mxGeometry>
        </mxCell>
        <mxCell id="YQMP1E4HPhKx9zHPdBce-5" value="Order Service" style="rounded=0;whiteSpace=wrap;html=1;direction=west;" vertex="1" parent="YQMP1E4HPhKx9zHPdBce-60">
          <mxGeometry x="130" y="330" width="120" height="60" as="geometry" />
        </mxCell>
        <mxCell id="YQMP1E4HPhKx9zHPdBce-33" value="" style="endArrow=classic;html=1;rounded=0;entryX=0.419;entryY=1.032;entryDx=0;entryDy=0;entryPerimeter=0;" edge="1" parent="YQMP1E4HPhKx9zHPdBce-60" target="YQMP1E4HPhKx9zHPdBce-3">
          <mxGeometry width="50" height="50" relative="1" as="geometry">
            <mxPoint x="240" y="330" as="sourcePoint" />
            <mxPoint x="242.6800000000003" y="173.12000000000012" as="targetPoint" />
          </mxGeometry>
        </mxCell>
        <mxCell id="YQMP1E4HPhKx9zHPdBce-1" value="Product Service" style="rounded=0;whiteSpace=wrap;html=1;" vertex="1" parent="YQMP1E4HPhKx9zHPdBce-60">
          <mxGeometry x="100" y="230" width="120" height="60" as="geometry" />
        </mxCell>
        <mxCell id="YQMP1E4HPhKx9zHPdBce-32" value="" style="endArrow=classic;html=1;rounded=0;exitX=0.5;exitY=1;exitDx=0;exitDy=0;entryX=0.75;entryY=1;entryDx=0;entryDy=0;" edge="1" parent="YQMP1E4HPhKx9zHPdBce-60" source="YQMP1E4HPhKx9zHPdBce-5" target="YQMP1E4HPhKx9zHPdBce-1">
          <mxGeometry width="50" height="50" relative="1" as="geometry">
            <mxPoint x="230" y="260" as="sourcePoint" />
            <mxPoint x="280" y="210" as="targetPoint" />
          </mxGeometry>
        </mxCell>
        <mxCell id="YQMP1E4HPhKx9zHPdBce-44" value="" style="edgeStyle=orthogonalEdgeStyle;rounded=0;orthogonalLoop=1;jettySize=auto;html=1;" edge="1" parent="YQMP1E4HPhKx9zHPdBce-60" source="YQMP1E4HPhKx9zHPdBce-1" target="YQMP1E4HPhKx9zHPdBce-40">
          <mxGeometry relative="1" as="geometry" />
        </mxCell>
        <mxCell id="YQMP1E4HPhKx9zHPdBce-46" value="Docker" style="edgeLabel;html=1;align=center;verticalAlign=middle;resizable=0;points=[];" vertex="1" connectable="0" parent="YQMP1E4HPhKx9zHPdBce-44">
          <mxGeometry x="-0.05" y="2" relative="1" as="geometry">
            <mxPoint as="offset" />
          </mxGeometry>
        </mxCell>
        <mxCell id="YQMP1E4HPhKx9zHPdBce-37" value="MongoDB" style="shape=datastore;whiteSpace=wrap;html=1;direction=west;" vertex="1" parent="YQMP1E4HPhKx9zHPdBce-60">
          <mxGeometry x="350" y="100" width="60" height="40" as="geometry" />
        </mxCell>
        <mxCell id="YQMP1E4HPhKx9zHPdBce-50" value="" style="edgeStyle=orthogonalEdgeStyle;rounded=0;orthogonalLoop=1;jettySize=auto;html=1;" edge="1" parent="YQMP1E4HPhKx9zHPdBce-60">
          <mxGeometry relative="1" as="geometry">
            <mxPoint x="310" y="140" as="sourcePoint" />
            <mxPoint x="350" y="140" as="targetPoint" />
          </mxGeometry>
        </mxCell>
        <mxCell id="YQMP1E4HPhKx9zHPdBce-8" value="Payment Service" style="rounded=0;whiteSpace=wrap;html=1;" vertex="1" parent="YQMP1E4HPhKx9zHPdBce-60">
          <mxGeometry x="330" y="240" width="120" height="60" as="geometry" />
        </mxCell>
        <mxCell id="YQMP1E4HPhKx9zHPdBce-34" value="" style="endArrow=none;dashed=1;html=1;dashPattern=1 3;strokeWidth=2;rounded=0;exitX=0;exitY=0.5;exitDx=0;exitDy=0;entryX=0;entryY=0.5;entryDx=0;entryDy=0;" edge="1" parent="YQMP1E4HPhKx9zHPdBce-60" source="YQMP1E4HPhKx9zHPdBce-5" target="YQMP1E4HPhKx9zHPdBce-8">
          <mxGeometry width="50" height="50" relative="1" as="geometry">
            <mxPoint x="230" y="260" as="sourcePoint" />
            <mxPoint x="280" y="210" as="targetPoint" />
          </mxGeometry>
        </mxCell>
        <mxCell id="YQMP1E4HPhKx9zHPdBce-35" value="Payment" style="edgeLabel;html=1;align=center;verticalAlign=middle;resizable=0;points=[];" vertex="1" connectable="0" parent="YQMP1E4HPhKx9zHPdBce-34">
          <mxGeometry x="-0.0455" y="2" relative="1" as="geometry">
            <mxPoint x="1" as="offset" />
          </mxGeometry>
        </mxCell>
        <mxCell id="YQMP1E4HPhKx9zHPdBce-10" value="Message Broker" style="shape=cylinder3;whiteSpace=wrap;html=1;boundedLbl=1;backgroundOutline=1;size=15;direction=south;" vertex="1" parent="YQMP1E4HPhKx9zHPdBce-60">
          <mxGeometry x="510" y="240" width="140" height="60" as="geometry" />
        </mxCell>
        <mxCell id="YQMP1E4HPhKx9zHPdBce-28" value="" style="edgeStyle=orthogonalEdgeStyle;rounded=0;orthogonalLoop=1;jettySize=auto;html=1;" edge="1" parent="YQMP1E4HPhKx9zHPdBce-60" source="YQMP1E4HPhKx9zHPdBce-8" target="YQMP1E4HPhKx9zHPdBce-10">
          <mxGeometry relative="1" as="geometry" />
        </mxCell>
        <mxCell id="YQMP1E4HPhKx9zHPdBce-6" value="Notification Service" style="rounded=0;whiteSpace=wrap;html=1;" vertex="1" parent="YQMP1E4HPhKx9zHPdBce-60">
          <mxGeometry x="700" y="220" width="120" height="60" as="geometry" />
        </mxCell>
        <mxCell id="YQMP1E4HPhKx9zHPdBce-36" value="" style="edgeStyle=orthogonalEdgeStyle;rounded=0;orthogonalLoop=1;jettySize=auto;html=1;" edge="1" parent="YQMP1E4HPhKx9zHPdBce-60" source="YQMP1E4HPhKx9zHPdBce-10">
          <mxGeometry relative="1" as="geometry">
            <mxPoint x="700" y="270" as="targetPoint" />
          </mxGeometry>
        </mxCell>
        <mxCell id="YQMP1E4HPhKx9zHPdBce-38" value="Postgres" style="shape=datastore;whiteSpace=wrap;html=1;" vertex="1" parent="YQMP1E4HPhKx9zHPdBce-60">
          <mxGeometry x="360" y="160" width="60" height="40" as="geometry" />
        </mxCell>
        <mxCell id="YQMP1E4HPhKx9zHPdBce-51" value="" style="edgeStyle=orthogonalEdgeStyle;rounded=0;orthogonalLoop=1;jettySize=auto;html=1;" edge="1" parent="YQMP1E4HPhKx9zHPdBce-60" source="YQMP1E4HPhKx9zHPdBce-8" target="YQMP1E4HPhKx9zHPdBce-38">
          <mxGeometry relative="1" as="geometry" />
        </mxCell>
        <mxCell id="YQMP1E4HPhKx9zHPdBce-52" value="Docker" style="edgeLabel;html=1;align=center;verticalAlign=middle;resizable=0;points=[];" vertex="1" connectable="0" parent="YQMP1E4HPhKx9zHPdBce-51">
          <mxGeometry x="-0.05" y="-3" relative="1" as="geometry">
            <mxPoint as="offset" />
          </mxGeometry>
        </mxCell>
        <mxCell id="YQMP1E4HPhKx9zHPdBce-65" value="" style="edgeStyle=orthogonalEdgeStyle;rounded=0;orthogonalLoop=1;jettySize=auto;html=1;" edge="1" parent="YQMP1E4HPhKx9zHPdBce-60" source="YQMP1E4HPhKx9zHPdBce-62" target="YQMP1E4HPhKx9zHPdBce-64">
          <mxGeometry relative="1" as="geometry" />
        </mxCell>
        <mxCell id="YQMP1E4HPhKx9zHPdBce-62" value="Auth Service" style="rounded=0;whiteSpace=wrap;html=1;" vertex="1" parent="YQMP1E4HPhKx9zHPdBce-60">
          <mxGeometry x="90" y="10" width="120" height="60" as="geometry" />
        </mxCell>
        <mxCell id="YQMP1E4HPhKx9zHPdBce-64" value="PostGres" style="shape=datastore;whiteSpace=wrap;html=1;" vertex="1" parent="YQMP1E4HPhKx9zHPdBce-60">
          <mxGeometry x="260" y="20" width="60" height="40" as="geometry" />
        </mxCell>
        <mxCell id="YQMP1E4HPhKx9zHPdBce-11" value="&lt;b&gt;Kafka&lt;/b&gt;" style="text;html=1;align=center;verticalAlign=middle;whiteSpace=wrap;rounded=0;" vertex="1" parent="YQMP1E4HPhKx9zHPdBce-60">
          <mxGeometry x="540" y="210" width="60" height="30" as="geometry" />
        </mxCell>
        <mxCell id="YQMP1E4HPhKx9zHPdBce-68" value="" style="edgeStyle=orthogonalEdgeStyle;rounded=0;orthogonalLoop=1;jettySize=auto;html=1;" edge="1" parent="YQMP1E4HPhKx9zHPdBce-60" source="YQMP1E4HPhKx9zHPdBce-41" target="YQMP1E4HPhKx9zHPdBce-6">
          <mxGeometry relative="1" as="geometry">
            <Array as="points">
              <mxPoint x="750" y="280" />
              <mxPoint x="750" y="280" />
            </Array>
          </mxGeometry>
        </mxCell>
        <mxCell id="YQMP1E4HPhKx9zHPdBce-41" value="MongoDB" style="shape=datastore;whiteSpace=wrap;html=1;" vertex="1" parent="YQMP1E4HPhKx9zHPdBce-60">
          <mxGeometry x="720" y="320" width="60" height="40" as="geometry" />
        </mxCell>
        <mxCell id="YQMP1E4HPhKx9zHPdBce-39" value="Postgres" style="shape=datastore;whiteSpace=wrap;html=1;" vertex="1" parent="YQMP1E4HPhKx9zHPdBce-60">
          <mxGeometry x="340" y="340" width="60" height="40" as="geometry" />
        </mxCell>
        <mxCell id="YQMP1E4HPhKx9zHPdBce-63" value="" style="endArrow=none;dashed=1;html=1;dashPattern=1 3;strokeWidth=2;rounded=0;entryX=0;entryY=0.75;entryDx=0;entryDy=0;" edge="1" parent="1" target="YQMP1E4HPhKx9zHPdBce-62">
          <mxGeometry width="50" height="50" relative="1" as="geometry">
            <mxPoint y="220" as="sourcePoint" />
            <mxPoint x="220" y="210" as="targetPoint" />
          </mxGeometry>
        </mxCell>
      </root>
    </mxGraphModel>
  </diagram>
</mxfile>
